<svg width="2560" height="1058" viewBox="0 0 2560 1058" fill="none" xmlns="http://www.w3.org/2000/svg">
<g style="mix-blend-mode:luminosity" opacity="0.1" clip-path="url(#clip0)">
<path d="M2560 -34H0V1091.9H2560V-34Z" fill="url(#paint0_linear)"/>
<path d="M2560 -34H0V1091.9H2560V-34Z" fill="url(#paint1_linear)"/>
<path d="M1280 471.4C1352.13 471.4 1410.6 412.928 1410.6 340.8C1410.6 268.672 1352.13 210.2 1280 210.2C1207.87 210.2 1149.4 268.672 1149.4 340.8C1149.4 412.928 1207.87 471.4 1280 471.4Z" fill="url(#paint2_linear)"/>
<path d="M951 600.2C950.1 595.7 941.4 590.5 938.2 588C933.5 584.4 928.4 580.1 924.2 575.9C919.8 571.6 916.8 567.2 913.2 562.4C912.4 561.3 911.5 560.4 910.3 559.7C908.2 558.6 905.8 558.8 903.5 558.3C896.8 556.8 893.9 550.7 889.4 546.1C885.5 542.1 881.4 543.3 877 545.3C872.1 547.5 867.6 550 863.4 553.5C860.5 555.9 857.7 559.7 853.4 559.2C847.1 558.5 843.4 551 837.4 550.4C832.9 549.9 829.3 553.4 825.6 555.6C823.3 557 821.2 558.7 818.8 560.1C809.4 565.6 803.2 575.3 793.6 580.7C783.6 586.3 763.7 594.9 756.1 584.8C755.3 583.7 754.5 580.6 753.8 580C752.1 578.7 747.3 579.7 745.5 579.8C740.7 580.2 736.8 582.3 732.2 583.2C727.5 584.1 721.3 583 717.1 581.1C711.7 578.6 708.4 572.1 703.3 569.8C699.2 568 690.8 569.4 686.9 570.7C682.2 572.2 678.1 574.9 673.4 576.4C668.8 577.9 664.5 578.1 659.8 578C654 577.9 648.5 579.4 643.2 581.8C638.8 583.8 635 586.9 630.6 588.8C626 590.8 625.1 592.4 621.2 595.3C617 598.5 611.5 594.2 606.1 595.5C600.8 596.8 594.7 600.2 590.4 603.3C587 605.8 584.6 610 581.3 612.7C578 615.5 575 616.1 570.8 617.5C565.2 619.3 561 621.2 555.5 624.3L708.6 733.8L967 600.6L951 600.2Z" fill="#D2E2CA"/>
<path d="M2558.6 354.8C2556.9 354.4 2554.3 353 2552.8 352.2C2550.8 351.1 2548.9 349.5 2546.9 348.3C2544.2 346.6 2543.5 346.9 2540.6 345.8C2538.7 345.1 2536.7 342 2534.8 341.3C2532.4 340.4 2529.4 340.9 2526.8 341C2519.8 341 2513.9 340.9 2507.2 342.9C2497.8 345.7 2487.8 349.1 2479.6 354.7C2474.3 358.3 2469.3 362.3 2463.9 365.6C2458.4 369.1 2452.9 371.1 2447.5 375C2441.1 379.5 2434.3 383.9 2427.6 388.1C2419.6 393.1 2410.9 395.9 2403.2 401.2C2396.4 405.9 2388 409.8 2380.5 413.2C2374.9 415.7 2370.5 419.7 2365.1 422.7C2353.6 428.9 2342.7 437.2 2331 442.9C2330.2 443.3 2329.4 443.7 2328.5 444.1C2322.6 446.8 2317 449.9 2311.2 452.8C2306.2 455.3 2300.9 456.3 2295.7 458.2C2290.2 460.3 2284.7 461.9 2279.2 464C2273.9 466 2269.2 469.4 2264 471.7C2257.2 474.7 2250.2 477.2 2243.3 479.9C2238.1 481.9 2232.9 484.1 2227.8 486.7C2208.8 496.2 2187.1 495.5 2166.6 497.8C2156.7 498.9 2146.6 498.7 2137 501.5C2128.7 504 2120.7 507.7 2112.8 511.1C2102.6 515.4 2093.4 522.4 2084.1 528.2C2072.3 535.6 2060.3 540 2046.9 543.7C2043.3 544.7 2038.6 540 2035.5 538.5C2029.3 535.6 2024.3 530.8 2018.6 526.9C2014.6 524.2 2011.3 521.2 2008 517.8C2007.6 517.4 2007.2 517 2006.8 516.6C2004.9 514.7 2001.9 510.7 1999.4 509.7C1997.1 508.8 1994.7 509.7 1992.3 509.2C1990.8 508.9 1987.8 507.2 1986.2 506.4C1981.4 504 1975.8 501.5 1971 498.6C1965.5 495.4 1960.7 492.2 1954.6 490C1949.9 488.3 1945.7 489 1940.8 488.8C1935.6 488.5 1931.5 485.2 1927.3 482.3C1924.8 480.6 1924 479.1 1921.9 477.1C1920.3 475.5 1917.5 475 1915.5 473.8C1911.1 471.1 1907.4 465.9 1902.1 464.6C1897.2 463.4 1892 465.4 1887.6 467.3C1876.9 471.9 1868.3 479.4 1858.4 485.3C1850.6 490 1839.1 491.2 1833.1 499C1830.5 502.5 1831 504 1826.4 504.2C1822.5 504.4 1819.2 503.7 1815.5 502.4C1811.7 501 1809.1 499.7 1806 497.2C1804.5 496 1802.7 494 1800.7 493.6C1797.8 493.1 1788.6 497.3 1786.3 499.3C1783.2 501.8 1783.8 503 1779 502.3C1775.5 501.8 1772.9 500.3 1769.7 499C1763.6 496.4 1760.7 498.6 1754.7 499C1749.8 499.3 1746 501.3 1742.1 504.6C1739.5 506.8 1736.7 508.7 1733.9 510.5C1727.9 514.3 1721.6 517.8 1716.8 523L1807 621H2560V354.8C2559.5 354.9 2559 354.9 2558.6 354.8ZM1238.5 555.6C1234.7 553.2 1230.4 551.4 1226.3 549.5C1224.9 548.8 1223.4 548.2 1222 547.5C1216.4 544.7 1212.9 542.5 1208.5 538C1206.9 536.3 1205.1 534.6 1203.6 533C1202.2 531.5 1201.1 529.5 1199.8 528.1C1197.4 525.5 1193.1 523.6 1190.1 521.8C1186.2 519.4 1181.9 516.8 1178.3 514.1C1175.5 512 1173.4 509.3 1170.3 507.5C1168.1 506.2 1165.7 505.6 1163.6 504.2C1162.2 503 1160.8 501.8 1159.5 500.6C1157.6 499.6 1155.5 499 1153.4 498.6C1151.3 497.4 1149.3 495.6 1147.6 493.8C1142.1 488.3 1135.7 483.9 1127.9 486.5C1123.7 487.9 1121.2 488.9 1117.8 492.1C1114.5 495.1 1112.4 496.3 1107.8 495.6C1099.9 494.5 1094.9 486.8 1087.6 485.1C1085 484.5 1080.3 484.9 1077.8 485.6C1075.3 486.3 1073.3 489.1 1070.7 490C1064.1 492.3 1055.9 488.7 1049.2 490.7C1044 492.3 1037.7 498.5 1033.7 502.3C1029.2 506.6 1024.4 511.1 1020.6 516.1C1018.6 518.8 1016.5 521.1 1013.6 523C1009.1 525.8 1002.4 526.6 997.2 527.6C988.5 529.2 981.5 532.9 973.5 536.3C962.5 541 952 546.9 941.1 551.8C939.8 552.4 937.8 552.5 936.5 553.3C933.7 554.9 933.4 557.2 931.1 559.2C927.7 562.1 923.7 564.6 920.1 567.6C919.6 568.1 919 568.6 918.4 569C905.9 579.7 892 589 877.3 596.3C871.9 599 867.4 600.9 862.7 604.9C859.9 607.3 857.4 610.5 854.1 612.3C851.4 613.8 848.4 614.1 845.7 615.5C842.3 617.2 838.9 620 835.7 622C829.7 625.7 823.2 628.4 817.8 633.2C814.1 636.5 810.7 638.6 806.8 641.4C802.5 644.6 798.7 648.1 794.8 651.7C792.6 653.7 790 655.1 787.6 656.7C784.5 658.8 782.1 661.8 779 663.8C774.7 666.7 769.2 667.4 764.9 670.4C760.2 673.6 754.8 675.2 750.4 678.6C747 681.3 743.7 683.1 739.4 683.9C736.3 684.5 733.3 683.8 730.1 684.5C727.7 685 725.8 686.5 723.4 687.2C719.2 688.5 714.4 690.6 710 691.1C707.3 691.4 704.8 690.6 702.1 691.3C700.5 691.7 696.7 693.3 692.9 695.1C688.1 697.3 683.4 699.6 683.4 699.7L716.7 729.4L768.8 775.9L808.1 811L888.9 784.5L1310.8 646C1306 645.6 1242.2 557.9 1238.5 555.6Z" fill="url(#paint3_linear)"/>
<path d="M2560 517.6V1091.8H0V986.1L369 885.2L466.8 858.5L511.9 846.2L569.6 830.4L593.6 823.8L677.6 800.8L739.2 784L768.8 775.9L796.2 768.4C804.2 768.6 810.4 767.8 817.3 764.1C820.3 762.5 822.5 760.3 825.2 758.7C825.5 758.5 825.7 758.4 826 758.2C826 758.2 826 758.2 826.1 758.2C826.4 758 826.7 757.8 827 757.7C827.5 757.5 828 757.2 828.5 757.1C829.1 756.9 829.8 756.7 830.5 756.6C835.4 755.7 840.3 755.2 845.3 754.9C851.2 754.4 857.4 749.7 863.1 747.5C868.7 745.3 874.4 743.8 880.2 742.3C887.8 740.5 895.9 737.9 903.4 740.5C909.6 742.7 914.4 747.2 920.9 748.8C927.1 750.4 934.9 750.4 940.9 747.9C948.8 744.7 956.4 739.6 963.8 735.5C970.1 732.1 976.6 728.9 982.8 725.5C989.9 721.5 994.9 717.6 1002.8 715.2C1014.6 711.6 1025.5 703.6 1035.1 695.9C1048.2 685.5 1061.3 674.6 1075.4 665.6C1080.3 662.4 1085.8 660.1 1090.7 656.9C1097 652.8 1102 646.7 1107.6 641.7C1113.7 636.2 1120 631.3 1126.8 626.6C1136.5 620 1146.5 615.7 1154.7 607C1158.3 603.2 1161.9 600 1166.1 597C1170.2 594.2 1173.7 590.6 1177.9 587.9C1182.1 585.3 1186 582.4 1190.1 579.8C1192.5 578.4 1193.9 576.9 1195.9 575.1C1198.3 573 1199.3 573.2 1202.2 572.3C1213.6 568.4 1217.9 557.7 1226.1 549.6C1226.2 549.5 1226.3 549.4 1226.3 549.3C1227.4 548.2 1228.4 547.1 1229.3 545.9C1230.4 544.5 1231.5 543.1 1232.7 541.8L1232.8 541.7C1233.2 541.2 1233.7 540.7 1234.2 540.2C1235.5 538.9 1237 537.8 1238.8 536.9C1241 535.8 1243.3 535.5 1245.6 534.8C1247.7 534.2 1249.2 532.3 1250.9 531.7C1258.3 529 1265 533.7 1271.6 535.7C1274.5 536.6 1277.2 537.7 1280 538.3C1283.4 539 1288.4 538.4 1291.8 538.3C1295.9 538.2 1298.9 536.2 1302.8 535.2C1304.6 534.7 1306 534.8 1307.9 534.8C1310.7 534.8 1311.2 534.1 1313.3 533.4C1317.7 532.1 1318.5 532.2 1321.5 527.9C1326.8 520.2 1331.7 512.5 1334.8 503.6C1336.7 498.3 1338.9 493.6 1343.1 490.2C1348 486.3 1352.9 482.2 1358.3 478.9C1364.2 475.3 1369.8 471.8 1375.2 467.8C1380.1 464.1 1384.4 458.8 1389.6 455.8C1394.7 452.9 1400.1 451.1 1405.4 448.6C1411.6 445.7 1416.4 440.8 1422.3 437.6C1428.5 434.3 1433.2 427.4 1437.4 421.9C1440 418.5 1443 414.6 1445.9 411.5C1448.2 409 1451.2 407.5 1453.5 405.2C1456.7 402 1457.5 402 1461.8 400.9C1463.6 400.4 1464.3 399.9 1466.1 399.1C1466.8 398.8 1467.7 399.5 1468.5 399.1C1469.7 398.5 1470.2 397.1 1471.2 396.2C1472.6 394.9 1474.2 393.5 1476.3 394.1C1476.6 394.2 1476.8 394.2 1477.1 394.3C1477.3 394.3 1477.4 394.4 1477.6 394.4C1482.4 395 1484.7 390.7 1490.1 390.7C1498.4 390.7 1501.2 392.2 1507.3 397.5C1511.4 401 1515.8 401.9 1521 403C1526.9 404.2 1531.8 407.2 1537.3 409.3C1540.3 410.5 1543.6 410.5 1546.7 411.7C1548.5 412.4 1550.1 413.7 1552 414.3C1558.6 416.4 1564.8 418.8 1571.5 420.9C1577.4 422.8 1583.3 424.8 1589.2 426.7C1591.7 427.5 1593.8 429.1 1596.2 429.9C1599.4 430.9 1602.8 430.5 1606 431.5C1611.1 433 1615.6 436 1620.7 437.6C1626.4 439.4 1631.9 440.5 1637.3 443.1C1643.9 446.3 1651.5 445.8 1651.4 454.3C1651.3 461.1 1651.5 464.9 1657.2 468.9C1662.6 472.6 1666.7 475.7 1673.2 477C1680.9 478.6 1689.2 486.4 1695.2 491.2C1699 494.3 1700.6 497.3 1705.1 499.9C1709.5 502.5 1714.1 504.5 1718.9 506.4C1723.8 508.3 1729 509.4 1734.2 510.5C1736.1 511 1738.1 511.4 1740 511.9C1747.2 513.8 1755.7 510.7 1762.6 513.1C1767.4 514.8 1771.1 519 1775.2 522C1778.3 524.3 1781.7 525.7 1785.2 527.2C1789.8 529.1 1795.2 529 1799.2 531.6C1800.6 532.5 1801.7 533.9 1803.4 534.7C1804.2 535.1 1805.6 534.9 1806.4 535.4C1809.1 537.2 1810.9 540.2 1813.9 542C1815.2 542.7 1817.1 543 1818.2 544C1819.5 545.2 1819.7 546.6 1820.8 547.8C1822.6 549.7 1826 552.6 1828.5 553.6C1832.1 555.1 1836.2 555.4 1839.9 556.9C1845.9 559.3 1850 563.3 1855.2 566.9C1861.2 571.1 1866.2 574.3 1873.8 574.6C1880.3 574.9 1885.2 574.6 1891.4 577.1C1897.4 579.6 1902.7 580.7 1909 581.8C1912.7 582.5 1916.1 583.8 1920 583.2C1920.9 583.1 1921.7 582.9 1922.5 582.6C1925.3 581.7 1928.1 580.2 1930.8 579.1C1935.2 577.2 1938.7 575 1943.4 573.7C1948.3 572.3 1951.8 569.9 1956.2 567.2C1960.3 564.7 1964.8 563.8 1969 561.5C1972.9 559.4 1975.4 556.5 1978.1 553.1C1980.4 550.1 1983.2 547.5 1985.5 544.5C1986.5 543.1 1986.9 541.6 1988 540.2C1989.6 538.2 1992 537 1993.7 535C1996.4 531.8 1997.6 527.7 2000.7 524.9C2001.4 524.3 2002 523.7 2002.7 523.1C2003.3 522.6 2003.9 522.1 2004.5 521.5C2005.9 520.3 2007.1 519 2008.3 517.6C2008.5 517.3 2008.8 517 2009 516.7C2009.4 516 2009.9 515.4 2010.2 514.7C2010.4 514.3 2010.6 513.9 2010.8 513.5C2014.5 505.1 2022.8 496.3 2029.8 490.5C2032.8 488 2034.4 484.6 2037.3 482.1C2039.8 479.8 2043.4 478.6 2046.1 476.6C2051.1 473 2055.8 470 2061.3 467.2C2065.9 464.8 2069.5 461.7 2071.6 456.7C2073.8 451.5 2074.1 445.5 2077.4 440.8C2079.9 437.2 2082.5 434 2084.9 430.2C2086.9 427.3 2089.5 423.4 2091.9 420.9C2093 419.7 2094.4 419.6 2095.6 418.4C2096.7 417.2 2097.5 414 2098.3 412.4C2100.3 408.4 2101.6 404.8 2104 401.1C2108.6 394.1 2110.3 386.2 2115.3 379.4C2118 375.7 2120.8 373.2 2123.8 370C2126.7 366.8 2128.9 363.3 2132.7 361C2133.1 360.7 2133.6 360.5 2134.1 360.2C2134.6 359.9 2135.1 359.7 2135.6 359.5C2135.9 359.4 2136.2 359.3 2136.6 359.1C2137.1 358.9 2137.7 358.7 2138.2 358.6C2147.2 356.3 2156.2 361 2164.9 364.8C2176.4 369.9 2187.3 375.7 2198.3 382C2211 389.2 2224.5 394.5 2234.2 406C2238.9 411.5 2242.8 419.1 2248.6 423.4C2256.1 429 2265.6 429.4 2274.4 430.6C2291.7 432.9 2310.4 433 2326.6 440.4C2328.2 441.1 2329.8 441.9 2331.3 442.7C2338.3 446.3 2344.6 450.5 2351.4 454.6C2359 459.2 2365.7 464.8 2373.3 469.2C2382.1 474.3 2390.4 479.4 2399.9 483C2403.3 484.3 2406.6 485.6 2410 486.9C2414.2 488.4 2420.8 488.9 2424.2 492C2428.7 496.1 2434 499.1 2439.5 501.5C2446.4 504.6 2452.5 503.1 2459.7 504.2C2465.9 505.1 2470.3 508.8 2475.9 510.7C2479.9 512 2485.3 510.9 2489.5 510.9C2503.3 511.1 2514.6 500.7 2528.6 505.3C2535.2 507.5 2541 510.2 2547.5 513C2551.6 514.9 2555.7 516.4 2560 517.6Z" fill="url(#paint4_linear)"/>
<path d="M513.8 858C528.5 918.7 618.3 960.6 708.9 974.8C799.6 989 894.4 982.8 987.4 987C1083.6 991.3 1187.3 1005.8 1271.2 974.4C1325.3 954.2 1360.7 918.2 1394.1 883.6C1423.3 853.3 1205.8 806 1215.7 770.6C1223.1 744.1 1332.4 734.2 1362.4 729.4C1405.7 722.4 1607.5 704.5 1607 668.5C1606.9 661.7 1601.3 655.6 1595.8 649.9C1565.4 618 1535 586 1504.6 554.1C1491.6 540.5 1478.3 526.1 1476.2 510.1C1474.1 494 1487.2 475.9 1511 472.2C1530.8 469.1 1562.7 470.7 1561 457.3C1560.5 453.3 1556.1 450 1551.9 447C1527.2 429.5 1502.4 412 1477.7 394.5C1477.3 394.5 1476.9 394.4 1476.5 394.3C1474.5 393.7 1472.8 395.1 1471.4 396.4C1470.4 397.4 1469.9 398.8 1468.7 399.3C1467.9 399.7 1467 399 1466.3 399.3C1464.6 400 1463.9 400.6 1462.1 401.1C1457.8 402.2 1457 402.2 1453.8 405.4C1451.4 407.8 1448.4 409.3 1446.1 411.8C1443.2 414.9 1440.2 418.8 1437.6 422.2C1433.4 427.7 1428.8 434.6 1422.5 437.9C1416.6 441 1411.8 445.9 1405.6 448.9C1400.3 451.4 1394.9 453.1 1389.8 456.1C1384.6 459.1 1380.3 464.4 1375.4 468.1C1370 472.2 1364.4 475.7 1358.5 479.3C1353.1 482.6 1348.2 486.7 1343.3 490.6C1339.1 494 1336.8 498.7 1335 504C1331.8 512.9 1327 520.5 1321.6 528.3C1318.7 532.6 1317.8 532.5 1313.4 533.8C1311.3 534.4 1310.8 535.1 1308 535.1C1306.2 535.1 1304.7 535 1303 535.5C1299.2 536.5 1296.1 538.4 1292.1 538.6C1288.6 538.7 1283.6 539.4 1280.3 538.6C1277.5 538 1274.8 536.8 1271.9 536C1265.3 534.1 1258.7 529.3 1251.3 532C1249.6 532.6 1248.1 534.5 1246 535.1C1243.7 535.8 1241.4 536.1 1239.2 537.2C1233.4 540 1230.8 545.5 1226.4 549.9C1218.2 558 1214 568.7 1202.5 572.6C1199.7 573.6 1198.6 573.3 1196.2 575.4C1194.1 577.2 1192.7 578.7 1190.4 580.1C1186.2 582.7 1182.3 585.6 1178.2 588.2C1174 590.8 1170.5 594.5 1166.4 597.3C1162.1 600.2 1158.5 603.5 1155 607.3C1146.8 616 1136.8 620.3 1127.1 626.9C1120.4 631.5 1114 636.5 1107.9 642C1102.3 647 1097.3 653.1 1091 657.2C1086.1 660.4 1080.7 662.8 1075.7 665.9C1061.6 674.9 1048.5 685.7 1035.4 696.2C1025.8 703.9 1014.9 711.9 1003.1 715.5C995.2 717.9 990.2 721.8 983.1 725.8C976.9 729.3 970.4 732.4 964.1 735.8C956.7 739.9 949.1 745 941.2 748.2C935.2 750.6 927.4 750.7 921.2 749.1C914.7 747.4 909.9 742.9 903.7 740.8C896.1 738.2 888.1 740.7 880.5 742.6C874.6 744 869 745.6 863.4 747.8C857.7 750 851.5 754.8 845.6 755.2C840.6 755.6 835.7 756 830.8 756.9C825.2 757.9 822.3 761.9 817.5 764.5C810.6 768.2 804.4 768.9 796.5 768.8L512.2 846.5C512.2 850.2 512.8 854.1 513.8 858Z" fill="url(#paint5_linear)"/>
<path d="M1716.2 770.4C1713.3 773.7 1711.8 777.3 1713.7 780.5C1723.1 778.9 1725.7 772.9 1733 769.7C1739 767.1 1749.2 764.5 1755.8 762.6C1764.8 760.1 1767.6 760.6 1775 754.8C1792.5 741.3 1792.4 720.9 1824.2 716.7C1830.1 715.9 1836.3 715.9 1841.9 714.4C1872.2 705.7 1880.6 684.9 1900.5 670C1927.3 650 1963.2 637 1995.5 621.3C2059.4 590.2 2113.8 520.7 2197.8 515.2C2249.9 511.8 2304.8 519.5 2353.4 506.6C2310.2 496 2267 485.5 2223.8 474.9C2174 462.7 2162.1 458.7 2153.3 424.1C2148.5 405 2144.5 378.4 2138 358.6C2136.2 359.1 2134.3 359.8 2132.5 360.9C2128.7 363.2 2126.6 366.7 2123.6 369.9C2120.6 373.1 2117.8 375.6 2115.1 379.3C2110.1 386.1 2108.4 393.9 2103.8 401C2101.4 404.7 2100.1 408.3 2098.1 412.3C2097.3 413.9 2096.5 417.1 2095.4 418.3C2094.2 419.6 2092.9 419.7 2091.7 420.8C2089.3 423.3 2086.7 427.2 2084.7 430.1C2082.2 433.8 2079.7 437 2077.1 440.7C2073.8 445.4 2073.5 451.4 2071.3 456.6C2069.2 461.6 2065.6 464.7 2061 467.1C2055.5 469.9 2050.9 472.9 2045.9 476.5C2043.2 478.5 2039.6 479.8 2037.1 482C2034.3 484.5 2032.6 487.9 2029.6 490.4C2022.6 496.2 2014.2 505.1 2010.6 513.4C2008.4 518.4 2004.4 521.3 2000.6 524.8C1997.5 527.6 1996.3 531.7 1993.6 534.9C1991.9 536.9 1989.5 538.1 1987.9 540.1C1986.8 541.5 1986.4 543 1985.4 544.4C1983.1 547.4 1980.3 550 1978 553C1975.3 556.5 1972.9 559.3 1968.9 561.5C1964.7 563.8 1960.2 564.6 1956.1 567.2C1951.8 569.8 1948.3 572.3 1943.3 573.7C1938.6 575 1935.1 577.2 1930.7 579.1C1928 580.3 1925.3 581.8 1922.4 582.6C1909 596 1895.3 609.2 1881.2 622.2C1877 626.1 1873 630.1 1869 634C1843.7 659 1818.5 684.2 1792.4 708.9C1778.9 721.7 1765.2 734.4 1750.7 746.8C1744.2 752.4 1738.5 756.2 1730.3 760.2C1726 762.2 1719.9 766.1 1716.2 770.4Z" fill="url(#paint6_linear)"/>
<path d="M1426.1 1091.9H0V282.4C0.9 282.9 1.7 283.3 2.7 283.5C8.7 284.9 16.5 283.7 22.6 283.4C25.1 283.3 27.7 282.7 30.4 282.1C33.4 281.4 36.5 280.8 39.5 280.9C39.7 280.9 39.9 280.9 40.1 280.9C40.7 281 41.3 281 41.8 281.2C42.5 281.3 43.1 281.5 43.8 281.8C44.8 282.2 45.7 282.7 46.6 283.4C50.4 286.3 55.2 288.3 58.5 292C62.7 296.7 66.7 304.2 70.2 309.9C73.5 315.2 75.5 319.1 80.2 322.3C85.7 326.1 91.2 332.5 95.8 337.9C104.1 347.4 111.5 363.9 122.3 368.3C127 370.2 131.1 369.3 136.1 369.8C142.6 370.5 149.4 371.5 155.9 372.5C165.7 374.1 175.5 376.8 185.2 379.1C192.8 380.9 201.4 382.6 208.2 387.2C221.1 396 238.1 398.3 249 411.5C254.6 418.2 261 422.5 267.1 428.4C272.7 433.8 277.6 439.8 282.6 446.1C290.5 456.2 294.2 468.1 300.3 479.8C313.7 505.7 377.6 517.6 416.9 525.8C442 531.1 454.2 533 468.7 548.1C498.4 578.8 523.6 609.7 564.2 636.5C565.2 637.1 566.1 637.7 567.1 638.3C568.1 638.9 569 639.5 570 640.1C571 640.7 572 641.3 573 641.8C574 642.4 575 642.9 576 643.5C581.7 646.6 587.6 649.6 593.4 652.5C595.3 653.5 597.2 654.4 599.1 655.3C599.9 655.7 600.7 656.1 601.4 656.5C602.7 657.2 604 657.9 605.3 658.6C605.3 658.6 605.4 658.6 605.4 658.7C606.9 659.5 608.5 660.4 610 661.2C611.5 662.1 613 662.9 614.5 663.8C616.3 664.9 618.2 666 619.9 667.2C625.3 670.6 630.5 674 635.5 677.5C637.2 678.6 638.8 679.8 640.5 681C641.2 681.5 641.9 682 642.5 682.4C644.2 683.6 645.9 684.8 647.6 686C650 687.7 652.3 689.4 654.6 691.1C659.2 694.5 663.7 697.8 668.3 701.2C671.6 703.7 675 706.1 678.4 708.6C680.9 710.4 683.5 712.3 686.1 714.1C688.1 715.5 690.2 717 692.3 718.4C692.4 718.5 692.5 718.5 692.6 718.6C694.2 719.7 695.8 720.7 697.4 721.8C698.7 722.7 700.1 723.5 701.4 724.4C704.7 726.5 708.1 728.6 711.5 730.6C712.4 731.2 713.4 731.7 714.4 732.2C715.2 732.7 716 733.1 716.8 733.5C718 734.2 719.3 734.9 720.5 735.5C723.5 737.1 726.5 738.7 729.6 740.2C731 740.9 732.4 741.6 733.8 742.2C733.9 742.3 734 742.3 734.1 742.3C734.6 742.6 735.2 742.8 735.7 743C736.4 743.3 737.1 743.6 737.8 743.9C742.8 746.1 747.9 748.2 753.3 750.2C754.3 750.6 755.3 750.9 756.3 751.3C756.7 751.5 757.1 751.6 757.5 751.7C758.8 752.2 760.2 752.7 761.6 753.1C763 753.6 764.4 754 765.9 754.5C770.6 756 775.4 757.6 780.2 759.2C787.4 761.6 794.7 764.1 801.9 766.8C804.3 767.7 806.7 768.6 809.2 769.5C810.7 770.1 812.2 770.6 813.6 771.2C815.9 772 818.1 772.9 820.4 773.8C823 774.8 825.6 775.8 828.3 776.9C830.8 777.9 833.4 778.9 835.9 779.9C838.5 780.9 841 782 843.5 783C846 784 848.6 785.1 851.1 786.1C863.8 791.4 876.3 796.9 888.6 802.6C889.1 802.9 889.7 803.1 890.2 803.3C894.4 805.3 898.6 807.2 902.8 809.2C933 823.6 961.6 838.8 986.7 853.8C989.6 855.6 992.5 857.3 995.5 859C999.7 861.5 1004 864 1008.2 866.4C1011.7 868.5 1015.3 870.5 1018.8 872.5C1022.5 874.6 1026.1 876.7 1029.7 878.7C1034.1 881.2 1038.5 883.7 1042.9 886.2C1045.6 887.7 1048.2 889.2 1050.9 890.8C1058.1 894.9 1065.3 899 1072.4 903.1C1074.2 904.1 1075.9 905.2 1077.7 906.2C1089.5 913.1 1101.3 920 1113 927.3C1114.8 928.4 1116.6 929.5 1118.4 930.6C1120.2 931.7 1122 932.8 1123.8 934C1126.5 935.7 1129.2 937.4 1131.9 939.2C1134.6 940.9 1137.3 942.7 1139.9 944.4C1145.2 947.9 1150.5 951.5 1155.8 955.2C1160.6 958.5 1165.4 961.8 1170.3 965C1171.8 966 1173.3 966.9 1174.8 967.9C1175.9 968.6 1177 969.3 1178 969.9C1179.6 971 1181.3 972 1183.1 973C1184.3 973.7 1185.4 974.4 1186.6 975.1L1186.8 975.2C1194.9 980.1 1203.2 984.7 1211.5 989.2C1214.5 990.8 1217.5 992.4 1220.5 994C1287.3 1028.6 1360.1 1054.9 1426.1 1091.9Z" fill="#1A6357"/>
<path d="M1155.9 955.2C1101.9 917.4 1044.1 888 986.9 853.8C925.4 817 842.2 778.7 766.1 754.6C699.6 733.5 667.9 696.2 614.7 663.9C599 654.4 580.1 647 564.2 636.5C523.5 609.8 498.3 578.8 468.7 548.1C454.1 533 441.9 531.1 416.8 525.8C377.5 517.6 313.7 505.7 300.3 479.8C294.2 468.1 290.5 456.2 282.6 446.1C277.6 439.8 272.8 433.8 267.2 428.4C261.1 422.5 254.6 418.2 249.1 411.5C238.1 398.3 221.2 396 208.3 387.2C201.5 382.5 192.9 380.9 185.3 379.1C175.6 376.8 165.8 374.1 156 372.5C149.5 371.5 142.7 370.5 136.2 369.8C131.2 369.3 127.1 370.2 122.4 368.3C111.6 364 104.2 347.4 95.9 337.9C91.2 332.5 85.8 326.1 80.3 322.3C75.6 319 73.5 315.1 70.2 309.9C66.7 304.2 62.7 296.8 58.5 292C55.2 288.3 50.4 286.3 46.6 283.4C41.8 279.7 36 280.9 30.4 282.2C57.9 307.3 87.9 330.8 64.1 362C34.8 400.3 73.2 414.8 122.2 440.1C173.8 466.8 231.1 487.6 285.6 511.7C293.3 515.1 298.7 518.6 303.9 523.4C317.1 535.7 333.5 547 353.6 555.1C363.9 559.2 376.2 561.5 386.2 565.7C402.1 572.4 407.2 584.7 415.3 594.7C418.8 599 423.3 602.3 425 607.1C426.2 610.5 425.4 612.7 428.4 616.1C435.4 624.2 450.4 630 463.2 633.9C476.7 638 487.8 640.6 497.8 647.8C506.3 654 505.2 658.6 506 666.3C508 685.4 537.8 702.1 553.5 717.5C573.9 737.6 585 759.9 610.4 778.3C669 820.7 744 846.2 817 877.4C904.8 915 995.3 946 1097 966.8C1120.3 971.5 1174.5 987.3 1211.8 989C1192.3 978.8 1173.6 967.6 1155.9 955.2Z" fill="url(#paint7_linear)"/>
<path d="M2560 566.1V1091.9H832C841 1084.8 850.2 1077.9 859.7 1071.5C865 1067.9 870.4 1064.4 876 1061C920.5 1034.2 971.6 1015 1015.8 988.5C1022.8 984.3 1029.6 980 1036.2 975.3C1046.3 968.2 1056.1 960.2 1065.9 952C1075.1 944.3 1084.5 936.6 1094.3 929.4C1100.4 925 1106.6 920.8 1113.1 916.9C1115.3 915.6 1117.5 914.4 1119.7 913.2C1135.5 904.9 1151.9 898.6 1168.6 893.5C1223 877 1281 872.8 1334.8 854C1341.5 851.7 1348.2 849.3 1354.9 847C1408.2 828.6 1461.8 810.6 1514.7 791.7C1560 775.5 1611.6 743.6 1663.7 753.1C1725.1 764.4 1786.9 747 1846.9 737.3C1876.7 732.5 1907.2 727.5 1933 716C1947.6 709.5 1960.4 701 1975.4 694.9C1992.6 688 2012.2 684.5 2031 680C2091.4 665.6 2135.9 630.6 2195.1 620.9C2211.7 618.2 2229.4 617.4 2248.9 619.6C2253.8 620.2 2258.8 620.9 2263.8 620.9C2265.1 620.9 2266.4 620.9 2267.6 620.7C2281.8 619.5 2292.3 610.9 2305.5 607.1C2324 601.8 2345.3 606.4 2365.1 604C2390.3 601 2409.6 587.4 2429.5 576.3C2434.4 573.6 2439.6 570.9 2445.7 569.6C2477.2 563.3 2504.7 580.4 2539.8 570.3C2546.3 568.5 2553.2 567.4 2560 566.1Z" fill="#1A6357"/>
<path d="M935.8 887.7C933.5 884.1 913.3 879.8 910.7 876.4C910 875.5 909.1 874.8 908.2 874.1C907.2 873.3 906.3 872.6 905.5 871.6C904.1 869.8 903.8 868.1 902 866.7C900.3 865.3 897.2 864.6 895.2 863.6C892.8 862.3 890.7 861.2 888.1 860.3C875.1 855.5 862.1 852.2 848.7 848.6C844.1 847.3 839.4 845.9 834.9 844.6C830.9 843.5 829.1 841.4 825.6 839.3C819.6 835.5 814.4 830.9 808 827.7C804.6 826 801.2 824.6 797.9 823.2C795.1 822 792.1 820.2 789.4 819.1C787.1 818.2 785 817.7 782.7 816.7C778.7 815 775.2 815.6 771.2 814.7C768.8 814.1 765.2 812.7 762.4 811.8C759.9 810.9 757.3 810.9 754.8 810.3C751.3 809.4 745.6 807.2 742.6 805C741.4 804.1 740.2 803.2 739.1 802.2C737.3 800.6 735.5 799 733.4 797.6C729.8 795.1 724.4 793.3 720.4 791.2C715.3 788.5 709.8 786.4 704.4 784.5C690.8 779.9 677 775.6 664.8 768.1C660.2 765.3 655.1 762.5 650.9 758.8C648.1 756.4 645.8 753.5 643 751.1C632.6 742.5 622.3 734.7 609.7 729.2C600.6 725.3 590.6 721.7 581.2 718.4C569.7 714.4 558.5 710.3 546.9 706.7C545.8 706.4 544.7 706 543.6 705.6C534.2 702.5 524.6 699 515.5 695.3C505.1 691.1 495.8 684.8 486.1 679.1C478.4 674.6 470.8 669.8 462.6 666.1C453.8 662.2 444.4 659.7 435.5 656C428.2 653 421.1 649.3 413.6 646.6C408.5 644.8 403.1 644.3 398 642.5C393.1 640.8 387.9 637.3 384.1 633.8C381.9 631.8 380.9 629.2 378.8 627.2C377.4 625.9 375.4 625.3 374 624.1C371.9 622.2 371.2 620.8 368.7 619.2C366.9 618 365.2 617.4 363.4 616C359.9 613.2 358.3 609.3 355.3 606.3C350.9 601.8 343.2 598.6 337.9 595.1C333.6 592.3 328.9 588.7 325.2 585.4C321.9 582.4 319.6 578.5 316.5 575.2C312 570.6 307.4 569.2 301.4 566.7C295.1 564 289 562.9 282.6 560.7C279.4 559.6 277.1 557.3 273.9 556.1C272.5 555.5 269 555.1 267.4 554.2C264.9 552.8 263.6 551.2 260.8 550C259.2 549.3 257.3 549.1 255.7 548.5C252.1 547.2 248.2 545.4 245.3 542.9C236.4 535.5 226.1 530.4 216.6 523.7C212 520.4 207.5 519 202.3 516.9C198 515.1 193.2 512.8 190.5 509.2C187.8 505.7 186.5 504.4 182.3 502.4C175 498.9 168.1 496.7 160.1 495C155.4 494 148.4 492.5 144.5 489.4C142.2 487.6 142.1 484.7 139.7 482.9C133 478 122.2 480.1 114.3 480.1C110.4 480.1 106.3 480.5 102.5 480.1C98.3 479.7 96 477.3 92.1 475.6C80.8 470.6 69 467 57.1 463.5C52 462 47.2 460 42 458.6C36.7 457.2 32.9 457.5 28.4 454.6C25.1 452.5 21.6 449.6 18.3 447.6C14.8 445.6 14 447.5 10 447.8C6.60002 448.1 3.20002 448.6 -0.0999756 449.3V897.1H944.2C941.6 893.9 938.1 891.4 935.8 887.7ZM2555.6 594.7C2544.9 597.1 2533.7 600.9 2523.6 604.9C2514.6 608.5 2507.6 615.1 2499 619.3C2491.5 623 2483.1 625.3 2475.3 628.6C2467.3 632 2458.9 637.6 2450 637.7C2446.1 637.7 2442.3 637.8 2438.4 637.7C2432.7 637.6 2425.8 641 2421.2 644.3C2415.9 648 2412.4 651.6 2405.9 653.5C2398.2 655.7 2392.7 660.7 2385.6 664.3C2381.6 666.4 2379.2 669.6 2376 672.6C2373.4 675 2371.5 676.3 2368.5 678C2364.6 680.2 2360.8 682.6 2356.5 684.3C2353.9 685.3 2351.3 685.2 2348.8 685.9C2345.8 686.6 2343.4 688.5 2340.3 689.2C2334.2 690.4 2330 692.1 2324.3 694.5C2319.3 696.5 2313.5 697 2308.3 698.5C2297.7 701.5 2287.1 706.2 2276.8 710.2C2270.5 712.6 2264 715.2 2257.5 716.9C2252.4 718.2 2247.4 717.8 2242.1 717.8C2229 717.8 2216.3 714.9 2203.3 716.9C2189 719.1 2176.2 724.8 2162.7 729.4C2150.3 733.6 2139.5 742 2127.6 747.5C2114.3 753.8 2097.9 750.4 2083.5 752.4C2079.2 753 2075 752.7 2070.7 752.7C2063.6 752.7 2059.5 754.3 2053.7 757.9C2044 764 2035.4 769.3 2024.9 773.9C2020.9 775.7 2017 777.5 2013.1 779.4C2005.5 783.1 1998.9 786 1990.6 787.8C1977.4 790.7 1964.6 794.9 1951.4 798.1C1945 799.7 1938.5 801 1931.9 801.9C1915.3 804.1 1898.4 802.3 1881.7 804.8C1860.7 807.9 1843 817.4 1823.2 824.4C1808.7 829.6 1793 827.9 1777.7 827.9C1766.2 827.9 1754.5 827.2 1743.2 828.8C1721 832 1702.7 844.2 1680.9 848.9C1664 852.5 1650.4 863.8 1634.3 869.6C1626 872.6 1619.1 877.5 1611.2 880.9C1604.5 883.8 1597.3 886.1 1590.4 888.7C1585.2 890.7 1580.1 893.6 1574.8 895.2C1570.2 896.6 1565.3 896.2 1560.5 897.2C1544.6 900.3 1528.6 905.6 1513.2 910.3C1500 914.3 1486.7 917 1473.4 920.5C1469.1 921.6 1464.8 922.7 1460.5 923.5C1451.8 925.3 1443.1 926.4 1434.1 926.4C1425.1 926.3 1416.1 926.4 1407.1 926.4C1390.4 926.3 1373.7 928.9 1357.4 932.3C1346.5 934.5 1335.6 937.1 1324.4 936.9C1321.3 936.9 1318.2 936.6 1315.1 936.1C1293.5 932.4 1270.2 936.9 1250.1 944.8C1243.3 947.4 1237 952.1 1229.6 953C1221 954.1 1212.4 951.7 1204.1 954.8C1198.3 956.9 1193 958.7 1187 959.8C1186.6 959.9 1186.2 959.9 1185.8 960C1182.9 960.5 1179.3 960.7 1176.5 961.6C1171.9 963.1 1167.8 966.2 1163.1 967.8C1162.8 967.9 1162.4 968.1 1162 968.2L1106 987.1H1105.9L859.7 1070.2L795.2 1092H2560V593.7C2558.5 594 2557.1 594.4 2555.6 594.7Z" fill="url(#paint8_linear)"/>
<path d="M615.6 873.5C612.1 874 608.6 873.7 605 873.7C584.7 873.4 564.3 873.7 544.1 873.9C534.1 874 524.2 874 514.3 873.8C498.4 873.6 482.6 873.1 466.8 872.2C412 869.3 358.2 862.5 305.6 850.6C253.1 838.7 202.5 819.4 146.6 814.6C108.7 811.3 70.6 808.4 34.1 800.9C23 798.6 11.5 796.8 0.0999756 794.8V580.2C9.69998 584.9 19.3 589.8 29.5 593.8C36.6 596.6 44.9 598.3 52.3 600.6C61 603.3 66.1 605.1 72.4 609.2C77 612.2 82 613.8 85.5 617.5C92.4 624.7 98.3 629 110.9 632.2C117.6 633.9 122.8 636.8 128.8 639.3C133.9 641.3 140 642.4 144.9 644.5C155.9 649.2 167.1 657.2 174.9 663.9C192.1 678.5 204.8 698.9 233.3 705.9C245.3 708.9 257 713.7 268.6 717.4C277.7 720.3 288 724.2 298 724.7C312.6 725.3 325.1 730.3 338.9 733.3C350.9 735.9 359.6 742.4 369.2 747.5C377.6 751.9 381.2 760.3 390.1 763.8C395.1 765.7 400 765.7 404.7 768.3C409.5 770.9 412.8 775.3 418.4 777.2C422.3 778.6 428 778.8 432.2 779.7C438 780.9 443.1 782.6 449.3 783C454.9 783.3 459.2 782.9 464.6 784.5C471.4 786.6 476.4 790.4 482.7 793C496.3 798.7 507.7 806 521.9 811.1C529.2 813.7 533.1 818.2 539.3 821.9C546.1 826 551 831 556.3 835.8C560.2 839.4 564.3 842.9 569.6 845.8C570.6 846.4 571.7 847 572.8 847.5C581.4 851.6 590.5 854.6 598 859.6C603.1 862.9 614.5 868.7 615.6 873.5Z" fill="url(#paint9_linear)"/>
<path d="M2560 782.5V1091.8H1699.7C1698.8 1090.7 1697.9 1089.7 1697 1088.6C1686.5 1075.5 1680.1 1060.6 1674.1 1046.5C1664.5 1024.2 1655.6 1001.8 1650.3 997C1676.5 996.1 1703.3 996.9 1729 1001.1C1744.5 1003.6 1760.3 1003.9 1776.3 1004.9C1807.2 1006.8 1836.4 1007 1867.3 1004.3C1880.1 1003.2 1892.7 1003.1 1905.4 1001.7C1906.3 1001.6 1907.1 1001.5 1908 1001.4C1917 1000.3 1926.4 1000.6 1935.6 999.6C1945 998.6 1952.2 996.1 1960.9 993.7C1984.9 987.1 2008.4 979 2033.6 974.3C2040.9 972.9 2047.6 971.9 2054.7 970C2065.3 967.3 2075.2 963.7 2086.2 961.7C2103.1 958.7 2121.6 960.5 2139 960.3C2146.3 960.2 2155 959.1 2162.1 958C2169.7 956.9 2176.9 953.9 2184.4 952.4C2190.5 951.2 2197.4 950.7 2203.2 948.8C2209.4 946.7 2213.8 943.6 2220.7 942.2C2227 941 2233.8 940.9 2240 939.6C2251.1 937.2 2257.6 930.2 2266.9 925.9C2278.6 920.6 2285.4 913.8 2293.4 906C2301.9 897.8 2310.6 889.9 2317.3 881C2324.7 871.2 2341.4 857.3 2358.5 854.3C2364.3 853.3 2369.3 854 2375.3 852.5C2381.8 850.9 2386.5 848.3 2393.5 848.1C2396.9 848 2401.3 848.8 2404.6 848.3C2409.2 847.6 2410.1 846.3 2414 844.7C2418.5 842.8 2424.1 841.9 2428.6 840C2434.7 837.5 2438.5 835 2446.3 834.6C2454.3 834.1 2455.4 836 2458.5 840.3C2461.1 843.9 2463.1 846.7 2463.9 850.7C2464.6 854.3 2463.1 856.1 2466.5 859.4C2470.5 863.4 2478.4 865.5 2483.6 868.9C2487.2 871.3 2492.9 875.2 2499.1 873.3C2504.5 871.7 2501 867 2501.7 863.6C2503.4 855.1 2508.5 848.1 2511.3 840.3C2512.6 836.7 2515.3 832.4 2517.2 828.9C2521.3 821.3 2523.3 811.8 2531.2 805.3C2536.1 801.2 2542.1 798.3 2546.6 794C2550 790.8 2554.2 785.4 2560 782.5Z" fill="url(#paint10_linear)"/>
<path d="M2383 1088.4C2365.9 1085.3 2348.8 1082.3 2331.7 1079.2C2319.7 1077 2310.7 1071.4 2298.9 1068.9C2291.6 1067.3 2284.5 1067.2 2277 1066.7C2270 1066.2 2264 1065.6 2257.7 1063.3C2249.6 1060.4 2243.2 1055.8 2235.7 1052.4C2214.4 1042.7 2188.3 1037.3 2162.4 1037.4C2136.3 1037.5 2110.2 1037.3 2084.1 1037.4C2064.2 1037.5 2051.5 1036.1 2032.9 1031.8C2018.4 1028.5 2002.1 1025.5 1986.8 1024.4C1976.4 1023.7 1965.7 1026 1955.4 1024C1949.4 1022.9 1940.4 1019.8 1934.7 1018.2C1917.8 1013.2 1900 1009 1882 1004.5C1856.8 998.2 1829.6 998.1 1804.8 991.1C1781.4 984.5 1756.9 986.2 1731.9 986.2C1716.3 986.2 1697.2 988.2 1682 985.9C1669.4 984 1657 981.5 1643.9 980.2C1634.1 979.2 1627.3 979.3 1617.7 976.8C1608 974.3 1598.2 972.4 1588.3 970.4C1572.7 967.3 1559.6 967.3 1543.4 967.3C1532.3 967.3 1518.7 968.7 1507.8 967.5C1493.9 965.9 1478.3 961.9 1465 958.8C1435.6 952 1406.1 942 1374.9 939.4C1360.1 938.2 1345.3 936.1 1330.4 936C1315.6 936 1302.4 932.7 1287.3 932.8C1270.6 932.9 1252.7 933.9 1236.2 932.5C1216.6 930.9 1195 930.9 1175.9 927.8C1155.9 924.6 1137.4 921.9 1116.5 923.2C1101.6 924.1 1089.6 927.9 1074.2 925.9C1057.1 923.7 1038.2 920.8 1021.4 917.4C1003.7 913.8 991.3 904.8 976 898.3C941.3 883.5 895.9 884.9 856.4 879.1C836.9 876.2 817.9 870.5 798.3 867.5C777.3 864.2 756.2 861.5 735.6 856.6C710.5 850.6 683.8 845.4 660.5 836.7C641.3 829.5 618.6 832.2 597 832.2C572.4 832.2 545.2 834.4 520.9 832.4C503.6 830.9 486.3 828.4 468.9 826.6C455.2 825.2 442 826.7 428.7 824.1C418.9 822.2 410.3 820.7 400.4 819.4C373.8 815.9 349.8 805.8 324.2 800.8C294 794.9 265.9 785.1 234.8 781.1C212 778.1 190.3 772.8 168 768.5C151.4 765.3 135.4 759.4 118.9 757.1C103.1 754.9 89.4 749.9 73.8 747.6C49.1 743.5 24 738.6 0 732.4V1091.9H2398.6C2393.1 1090.6 2387.8 1089.3 2383 1088.4Z" fill="#021E22"/>
<path d="M1280 727.3C1488.76 727.3 1658 558.064 1658 349.3C1658 140.536 1488.76 -28.7 1280 -28.7C1071.24 -28.7 902 140.536 902 349.3C902 558.064 1071.24 727.3 1280 727.3Z" fill="url(#paint11_radial)"/>
</g>
<defs>
<linearGradient id="paint0_linear" x1="1280" y1="-37.2257" x2="1280" y2="546.552" gradientUnits="userSpaceOnUse">
<stop stop-color="#5BAB9C"/>
<stop offset="0.1602" stop-color="#7DB9A4"/>
<stop offset="0.3668" stop-color="#A3C9AD"/>
<stop offset="0.533" stop-color="#BAD3B2"/>
<stop offset="0.6368" stop-color="#C3D7B4"/>
<stop offset="0.9975" stop-color="#E8EFE2"/>
</linearGradient>
<linearGradient id="paint1_linear" x1="1280" y1="-37.2257" x2="1280" y2="546.552" gradientUnits="userSpaceOnUse">
<stop stop-color="#5BAB9C"/>
<stop offset="0.1602" stop-color="#7DB9A4"/>
<stop offset="0.3668" stop-color="#A3C9AD"/>
<stop offset="0.533" stop-color="#BAD3B2"/>
<stop offset="0.6368" stop-color="#C3D7B4"/>
<stop offset="0.9975" stop-color="#E8EFE2"/>
</linearGradient>
<linearGradient id="paint2_linear" x1="1276.54" y1="204.041" x2="1282.06" y2="422.016" gradientUnits="userSpaceOnUse">
<stop stop-color="white"/>
<stop offset="1" stop-color="white" stop-opacity="0"/>
</linearGradient>
<linearGradient id="paint3_linear" x1="1652.94" y1="664.559" x2="1607.71" y2="466.041" gradientUnits="userSpaceOnUse">
<stop stop-color="#D2E2CA"/>
<stop offset="1" stop-color="#9FC9B5"/>
</linearGradient>
<linearGradient id="paint4_linear" x1="1229.17" y1="525.205" x2="1265.51" y2="725.047" gradientUnits="userSpaceOnUse">
<stop stop-color="#129483"/>
<stop offset="1" stop-color="#3EAF98"/>
</linearGradient>
<linearGradient id="paint5_linear" x1="1096.41" y1="898.716" x2="1032.73" y2="638.966" gradientUnits="userSpaceOnUse">
<stop stop-color="#BED5B3"/>
<stop offset="1" stop-color="#3EAF98" stop-opacity="0.3"/>
</linearGradient>
<linearGradient id="paint6_linear" x1="2069.94" y1="792.877" x2="1992.35" y2="476.404" gradientUnits="userSpaceOnUse">
<stop stop-color="#BED5B3"/>
<stop offset="1" stop-color="#3EAF98" stop-opacity="0.3"/>
</linearGradient>
<linearGradient id="paint7_linear" x1="632.175" y1="616.825" x2="580.84" y2="702.712" gradientUnits="userSpaceOnUse">
<stop stop-color="#BED5B3"/>
<stop offset="1" stop-color="#3EAF98" stop-opacity="0"/>
</linearGradient>
<linearGradient id="paint8_linear" x1="1312.04" y1="618.972" x2="1212.12" y2="1092.2" gradientUnits="userSpaceOnUse">
<stop stop-color="#093F35"/>
<stop offset="1" stop-color="#1A6357"/>
</linearGradient>
<linearGradient id="paint9_linear" x1="309.615" y1="716.75" x2="279.129" y2="888.429" gradientUnits="userSpaceOnUse">
<stop stop-color="#002A2E"/>
<stop offset="0.9925" stop-color="#075649"/>
</linearGradient>
<linearGradient id="paint10_linear" x1="2148.47" y1="885.306" x2="2064.73" y2="1193.07" gradientUnits="userSpaceOnUse">
<stop stop-color="#002A2E"/>
<stop offset="0.9925" stop-color="#075649"/>
</linearGradient>
<radialGradient id="paint11_radial" cx="0" cy="0" r="1" gradientUnits="userSpaceOnUse" gradientTransform="translate(1280 349.307) scale(377.98)">
<stop offset="0.1531" stop-color="#FFFAF2"/>
<stop offset="1" stop-color="#FFFAF2" stop-opacity="0"/>
</radialGradient>
<clipPath id="clip0">
<rect width="2560" height="1125.9" fill="white" transform="translate(0 -34)"/>
</clipPath>
</defs>
</svg>
