<svg width="121" height="63" viewBox="0 0 121 63" fill="none" xmlns="http://www.w3.org/2000/svg">
<path d="M55.9332 30.8144C56.1997 48.2953 42.0571 62.6012 24.6366 62.6012H0V62.601C-4.15814e-06 61.6978 0.177892 60.8034 0.523534 59.969C0.869176 59.1345 1.37579 58.3764 2.01446 57.7377C2.65312 57.099 3.41133 56.5924 4.24578 56.2468C5.08024 55.9012 5.9746 55.7233 6.8778 55.7233H24.6366C27.8825 55.7197 31.0952 55.0697 34.0873 53.8114C37.0793 52.5531 39.7909 50.7115 42.0638 48.3943C44.3367 46.077 46.1255 43.3303 47.3257 40.3145C48.526 37.2986 49.1137 34.074 49.0546 30.8286C48.8009 17.4577 37.5999 6.87767 24.2265 6.87767H6.8778C5.9746 6.87769 5.08024 6.69981 4.24578 6.35418C3.41133 6.00855 2.65313 5.50195 2.01447 4.8633C1.3758 4.22464 0.869183 3.46645 0.52354 2.632C0.177898 1.79756 -1.3861e-06 0.903199 0 0H24.1615C41.3381 -4.22159e-06 55.6713 13.6398 55.9332 30.8144ZM44.9121 25.1635C42.2285 16.4206 33.9734 10.1032 24.3665 10.1032H3.43903V10.1033C3.43902 11.0064 3.6169 11.9008 3.96253 12.7352C4.30815 13.5696 4.81475 14.3278 5.45339 14.9665C6.09203 15.6051 6.8502 16.1117 7.68463 16.4574C8.51905 16.803 9.41339 16.9809 10.3166 16.9809H24.3962C27.8997 16.98 31.2877 18.2339 33.9465 20.5154H13.8515V33.9031H30.1716C29.6934 34.9336 28.9373 35.8103 27.9883 36.4347C27.0392 37.0591 25.9349 37.4065 24.7993 37.4377H18.4993C17.889 37.4377 17.2846 37.5579 16.7207 37.7915C16.1568 38.025 15.6444 38.3674 15.2128 38.799C14.7812 39.2306 14.4389 39.7429 14.2053 40.3068C13.9717 40.8707 13.8515 41.4751 13.8515 42.0855H21.2869V42.1237H24.6366C27.0493 42.1223 29.3918 41.3115 31.2892 39.8211C33.1865 38.3307 34.529 36.2469 35.1019 33.9031H35.1021L35.1031 33.8986C35.1534 33.6924 35.2003 33.4856 35.2386 33.275C35.2805 33.0506 35.3151 32.8238 35.3424 32.5946C35.3566 32.4728 35.3666 32.3501 35.3767 32.2271C35.4003 31.9548 35.4158 31.6805 35.4183 31.4028C35.4185 31.3812 35.4216 31.3604 35.4216 31.3387V31.3387C35.4216 31.3335 35.4208 31.3285 35.4208 31.3233C35.4208 31.3156 35.4216 31.3082 35.4216 31.3005C35.4216 30.4232 35.3143 29.5493 35.1021 28.6981H19.0348V25.1635H44.9121ZM3.43903 52.498H24.6366C27.6415 52.5036 30.6131 51.8691 33.3537 50.6367C36.0943 49.4043 38.5409 47.6023 40.5308 45.3506C42.5206 43.0989 44.008 40.4493 44.894 37.5779C45.78 34.7066 46.0442 31.6795 45.669 28.6981H38.713C38.8574 29.4653 38.9379 30.2432 38.9535 31.0237C38.9882 32.9266 38.6436 34.8173 37.9398 36.5855C37.2361 38.3538 36.1873 39.9642 34.8546 41.3229C33.5219 42.6815 31.9321 43.7613 30.1777 44.499C28.4234 45.2368 26.5397 45.6179 24.6366 45.62H10.3166C9.41339 45.62 8.51905 45.7979 7.68463 46.1436C6.8502 46.4892 6.09202 46.9958 5.45338 47.6345C4.81474 48.2731 4.30815 49.0313 3.96252 49.8657C3.6169 50.7002 3.43902 51.5945 3.43903 52.4977V52.498Z" fill="url(#paint0_linear)"/>
<path d="M64.4513 5.22934H69.6051C71.0709 5.22934 71.8039 5.92287 71.8041 7.30992V17.9484C71.8041 19.3357 71.0711 20.0292 69.6051 20.0289H64.4513V5.22934ZM69.6525 17.6649V7.59378C69.6782 7.39719 69.6274 7.19824 69.5106 7.03804C69.3418 6.93144 69.1417 6.88559 68.9433 6.90809H66.6028V18.3502H68.9433C69.1417 18.3729 69.3419 18.327 69.5106 18.2202C69.6274 18.0602 69.6782 17.8614 69.6525 17.6649Z" fill="#212121"/>
<path d="M75.2787 5.22934H77.4062V20.0289H75.2787V5.22934Z" fill="#212121"/>
<path d="M87.8083 9.55594H85.6567V7.59378C85.6825 7.39725 85.6318 7.19832 85.5152 7.03804C85.3462 6.93151 85.146 6.88568 84.9475 6.90809H83.742C83.5436 6.88559 83.3435 6.93144 83.1747 7.03804C83.0577 7.19814 83.0069 7.39717 83.0328 7.59378V17.6884C83.0068 17.885 83.0577 18.0841 83.1747 18.2442C83.3435 18.3508 83.5436 18.3966 83.742 18.3741H84.9475C85.146 18.3965 85.3462 18.3507 85.5152 18.2442C85.6319 18.0839 85.6826 17.885 85.6567 17.6884V14.0715H84.4747V12.4162H87.8083V17.9484C87.8083 19.3517 87.0754 20.053 85.6097 20.0524H83.0798C81.6144 20.0524 80.8816 19.3511 80.8813 17.9484V7.30992C80.8813 5.92346 81.6141 5.22993 83.0798 5.22934H85.6097C87.0755 5.22934 87.8084 5.92287 87.8083 7.30992V9.55594Z" fill="#212121"/>
<path d="M91.1653 5.22934H93.2929V20.0289H91.1653V5.22934Z" fill="#212121"/>
<path d="M102.867 5.22934V6.95555H100.385V20.0289H98.2573V6.95555H95.7753V5.22934H102.867Z" fill="#212121"/>
<path d="M110.598 20.0289L110.007 16.6009H106.887L106.343 20.0289H104.215L106.839 5.22934H109.936L112.75 20.0289H110.598ZM107.146 14.8751H109.723L108.376 7.07352L107.146 14.8751Z" fill="#212121"/>
<path d="M117.336 18.3032H121V20.0289H115.208V5.22934H117.336L117.336 18.3032Z" fill="#212121"/>
<path d="M64.4513 23.9008H69.6051C71.0709 23.9008 71.8039 24.5943 71.8041 25.9814V36.6198C71.8041 38.0072 71.0711 38.7007 69.6051 38.7004H64.4513V23.9008ZM69.6525 36.3364V26.2653C69.6782 26.0687 69.6274 25.8697 69.5106 25.7095C69.3418 25.6029 69.1417 25.5571 68.9433 25.5796H66.6028V37.0217H68.9433C69.1417 37.0444 69.3419 36.9985 69.5106 36.8917C69.6274 36.7317 69.6782 36.5329 69.6525 36.3364Z" fill="#212121"/>
<path d="M77.1938 23.9008H79.8177C81.2836 23.9008 82.0164 24.5943 82.0163 25.9814V36.6198C82.0163 38.0072 81.2834 38.7007 79.8177 38.7004H77.1938C75.712 38.7004 74.9712 38.0069 74.9713 36.6198V25.9814C74.9713 24.5949 75.7121 23.9014 77.1938 23.9008ZM79.8887 36.2889V26.3123C79.9146 26.1158 79.8638 25.9169 79.7468 25.757C79.578 25.6504 79.3779 25.6045 79.1795 25.627H77.8085C77.713 25.5947 77.6104 25.5898 77.5123 25.6127C77.4141 25.6356 77.3243 25.6855 77.253 25.7568C77.1817 25.8281 77.1317 25.9178 77.1087 26.016C77.0857 26.1141 77.0906 26.2168 77.1229 26.3123V36.2889C77.0906 36.3845 77.0856 36.4871 77.1086 36.5853C77.1315 36.6835 77.1815 36.7734 77.2528 36.8447C77.3241 36.916 77.4139 36.966 77.5121 36.9889C77.6103 37.0119 77.713 37.0069 77.8085 36.9746H79.1795C79.3779 36.9971 79.578 36.9513 79.7468 36.8447C79.8638 36.6846 79.9147 36.4856 79.8887 36.2889Z" fill="#212121"/>
<path d="M87.4534 36.9746H91.1179V38.7004H85.3258V23.9008H87.4534L87.4534 36.9746Z" fill="#212121"/>
<path d="M95.515 36.9746H99.1794V38.7004H93.3874V23.9008H95.515L95.515 36.9746Z" fill="#212121"/>
<path d="M106.886 38.7004L106.295 35.2724H103.175L102.631 38.7004H100.503L103.127 23.9008H106.224L109.038 38.7004H106.886ZM103.435 33.5466H106.012L104.664 25.745L103.435 33.5466Z" fill="#212121"/>
<path d="M113.624 32.719V38.7004H111.497V23.9008H116.343C117.809 23.9008 118.542 24.5943 118.542 25.9814V30.6149C118.542 31.8129 118.014 32.4986 116.958 32.672L119.298 38.7004H117.005L114.783 32.719H113.624ZM113.624 25.627V31.0172H115.705C115.903 31.0398 116.103 30.9937 116.272 30.8868C116.389 30.7268 116.44 30.528 116.414 30.3315V26.3123C116.44 26.1158 116.389 25.917 116.272 25.757C116.103 25.6504 115.903 25.6046 115.705 25.627H113.624Z" fill="#212121"/>
<path d="M69.0374 54.9604V51.3434C69.0697 51.2479 69.0746 51.1452 69.0516 51.047C69.0287 50.9488 68.9787 50.859 68.9074 50.7877C68.8361 50.7164 68.7463 50.6664 68.6481 50.6435C68.5499 50.6205 68.4472 50.6255 68.3517 50.6577H66.6024C65.168 50.6577 64.451 49.9564 64.4513 48.5537V44.6528C64.4513 43.2664 65.1841 42.5729 66.6498 42.5723H68.9664C70.4322 42.5723 71.1652 43.2658 71.1654 44.6528V46.8279H69.0138V44.9837C69.0396 44.7873 68.9887 44.5884 68.8719 44.4284C68.7031 44.3218 68.503 44.276 68.3047 44.2985H67.3116C67.1132 44.276 66.9132 44.3219 66.7443 44.4284C66.6275 44.5884 66.5767 44.7873 66.6024 44.9837V48.2698C66.5766 48.4664 66.6275 48.6654 66.7443 48.8255C66.9131 48.9323 67.1132 48.9781 67.3116 48.9555H69.0374C70.4872 48.9555 71.2123 49.649 71.2124 51.0361V55.2913C71.2124 56.6786 70.4717 57.3721 68.9904 57.3718H66.6969C65.2314 57.3718 64.4986 56.6783 64.4983 55.2913V53.1162H66.6499V54.9604C66.624 55.1569 66.6747 55.3559 66.7913 55.5161C66.9603 55.6227 67.1606 55.6685 67.3591 55.6461H68.3517C68.4472 55.6784 68.5499 55.6833 68.6481 55.6604C68.7463 55.6374 68.8361 55.5874 68.9074 55.5161C68.9787 55.4448 69.0287 55.355 69.0516 55.2568C69.0746 55.1586 69.0697 55.0559 69.0374 54.9604Z" fill="#212121"/>
<path d="M80.243 42.5723V44.2985H77.7611V57.3718H75.633V44.2985H73.1511V42.5723H80.243Z" fill="#212121"/>
<path d="M84.6406 42.5723H87.2645C88.7304 42.5723 89.4632 43.2658 89.4631 44.6528V55.2913C89.4631 56.6786 88.7302 57.3721 87.2645 57.3718H84.6406C83.1588 57.3718 82.4179 56.6783 82.4181 55.2913V44.6528C82.4181 43.2664 83.1589 42.5729 84.6406 42.5723ZM87.3355 54.9604V44.9837C87.3614 44.7873 87.3106 44.5884 87.1935 44.4284C87.0247 44.3218 86.8246 44.276 86.6263 44.2985H85.2553C85.1598 44.2662 85.0572 44.2612 84.959 44.2841C84.8609 44.3071 84.7711 44.357 84.6998 44.4282C84.6285 44.4995 84.5785 44.5893 84.5555 44.6874C84.5325 44.7856 84.5374 44.8882 84.5696 44.9837V54.9604C84.5373 55.0559 84.5324 55.1586 84.5554 55.2568C84.5783 55.355 84.6283 55.4448 84.6996 55.5161C84.7709 55.5874 84.8607 55.6374 84.9589 55.6604C85.0571 55.6833 85.1598 55.6784 85.2553 55.6461H86.6263C86.8246 55.6686 87.0247 55.6227 87.1935 55.5161C87.3106 55.3561 87.3615 55.157 87.3355 54.9604Z" fill="#212121"/>
<path d="M94.9007 51.3905V57.3718H92.7731V42.5723H97.6195C99.0854 42.5723 99.8182 43.2658 99.8181 44.6528V49.2864C99.8181 50.4843 99.2901 51.17 98.2342 51.3434L100.575 57.3718H98.2812L96.0592 51.3905H94.9007ZM94.9007 44.2985V49.6886H96.9813C97.1797 49.7112 97.3799 49.6652 97.5485 49.5582C97.6654 49.3983 97.7163 49.1994 97.6905 49.003V44.9837C97.7162 44.7873 97.6654 44.5884 97.5485 44.4284C97.3797 44.3219 97.1796 44.276 96.9813 44.2985H94.9007Z" fill="#212121"/>
<path d="M105.231 55.6461H109.51V57.3718H103.08V42.5723H109.345V44.2985H105.231V48.861H108.636V50.5868H105.231L105.231 55.6461Z" fill="#212121"/>
<defs>
<linearGradient id="paint0_linear" x1="-6.25516" y1="56.346" x2="43.761" y2="6.32987" gradientUnits="userSpaceOnUse">
<stop offset="0.22487" stop-color="#1A237E"/>
<stop offset="0.64815" stop-color="#673AB7"/>
<stop offset="1" stop-color="#E91E63"/>
</linearGradient>
</defs>
</svg>
