<svg width="15" height="14" viewBox="0 0 15 14" fill="none" xmlns="http://www.w3.org/2000/svg">
<path d="M13.9167 0H6.17794C5.6264 0 5.17773 0.4487 5.17773 1.00021V3.34777H6.09078V1.00021C6.09078 0.952152 6.12989 0.913044 6.17794 0.913044H13.9167C13.9647 0.913044 14.0038 0.952152 14.0038 1.00021V8.73892C14.0038 8.78701 13.9647 8.82612 13.9167 8.82612H11.6423V9.73916H13.9167C14.4682 9.73916 14.9169 9.29046 14.9169 8.73892V1.00021C14.9168 0.4487 14.4682 0 13.9167 0Z" fill="#2A76F4"/>
<path d="M9.72916 4.26074H1.99047C1.43893 4.26074 0.990234 4.70944 0.990234 5.26098V12.9997C0.990265 13.5512 1.43893 13.9999 1.99047 13.9999H9.72919C10.2807 13.9999 10.7294 13.5512 10.7294 12.9997V5.26098C10.7295 4.70944 10.2807 4.26074 9.72916 4.26074ZM9.72922 13.0869H1.99047C1.94239 13.0869 1.90328 13.0478 1.90328 12.9997V5.26098C1.90328 5.21289 1.94239 5.17379 1.99047 5.17379H9.72919C9.77728 5.17379 9.81638 5.21289 9.81638 5.26098V12.9997H9.81642C9.81642 13.0478 9.77728 13.0869 9.72922 13.0869Z" fill="#2A76F4"/>
</svg>
