<svg width="17" height="17" viewBox="0 0 17 17" fill="none" xmlns="http://www.w3.org/2000/svg">
<g clip-path="url(#clip0)">
<path d="M16.781 13.4937L9.80785 1.92928C9.53313 1.4737 9.03199 1.19067 8.49998 1.19067C7.96797 1.19067 7.46683 1.4737 7.19208 1.92931L0.218989 13.4937C-0.0649307 13.9645 -0.073331 14.5545 0.197042 15.0333C0.467481 15.5121 0.977017 15.8095 1.52686 15.8095H15.4731C16.0229 15.8095 16.5325 15.5121 16.803 15.0333C17.0733 14.5544 17.0649 13.9645 16.781 13.4937ZM15.8392 14.489C15.7648 14.6208 15.6245 14.7027 15.4731 14.7027H1.52686C1.37549 14.7027 1.2352 14.6208 1.1608 14.4891C1.08635 14.3572 1.08868 14.1948 1.16681 14.0652L8.13996 2.50084C8.2156 2.37543 8.35356 2.2975 8.50001 2.2975C8.64644 2.2975 8.7844 2.37543 8.86003 2.50084L15.8331 14.0652C15.9113 14.1948 15.9136 14.3572 15.8392 14.489Z" fill="#787878"/>
<path d="M8.50545 5.74438C8.08444 5.74438 7.75586 5.9703 7.75586 6.37079C7.75586 7.59274 7.8996 9.34865 7.8996 10.5706C7.89963 10.8889 8.17691 11.0224 8.50549 11.0224C8.75192 11.0224 9.10105 10.8889 9.10105 10.5706C9.10105 9.34868 9.24479 7.59277 9.24479 6.37079C9.24479 5.97033 8.90595 5.74438 8.50545 5.74438Z" fill="#787878"/>
<path d="M8.51531 11.731C8.06351 11.731 7.72461 12.0903 7.72461 12.5217C7.72461 12.9427 8.06348 13.3124 8.51531 13.3124C8.93632 13.3124 9.29575 12.9427 9.29575 12.5217C9.29575 12.0903 8.93629 11.731 8.51531 11.731Z" fill="#787878"/>
</g>
<defs>
<clipPath id="clip0">
<rect width="17" height="17" fill="white"/>
</clipPath>
</defs>
</svg>
