<svg width="10" height="10" viewBox="0 0 10 10" fill="none" xmlns="http://www.w3.org/2000/svg">
<path d="M7.6786 5.71421H7.32142C7.26926 5.71421 7.22645 5.73092 7.19314 5.7645C7.15957 5.79788 7.14285 5.84067 7.14285 5.89278V7.67847C7.14285 7.92402 7.05549 8.13418 6.88065 8.30905C6.70582 8.48388 6.49558 8.57123 6.25003 8.57123H1.60711C1.36158 8.57123 1.15137 8.48388 0.976494 8.30905C0.80166 8.1342 0.714252 7.92404 0.714252 7.67847V3.03562C0.714252 2.79009 0.80164 2.57995 0.976494 2.4051C1.15137 2.23023 1.36158 2.14284 1.60711 2.14284H5.53565C5.58781 2.14284 5.63062 2.12605 5.66406 2.09261C5.6975 2.05913 5.71421 2.01638 5.71421 1.96425V1.60706C5.71421 1.55503 5.6975 1.5122 5.66406 1.47878C5.63062 1.4453 5.58781 1.42859 5.53565 1.42859H1.60711C1.16444 1.42859 0.785887 1.58577 0.471477 1.90012C0.157185 2.21445 0 2.59301 0 3.03568V7.67855C0 8.1212 0.157185 8.49981 0.471497 8.81405C0.785906 9.12842 1.16446 9.28568 1.60713 9.28568H6.25003C6.69268 9.28568 7.07128 9.12842 7.38565 8.81405C7.70004 8.49981 7.85722 8.12122 7.85722 7.67855V5.89291C7.85722 5.84075 7.84049 5.79794 7.80691 5.7645C7.77343 5.73092 7.73063 5.71421 7.6786 5.71421Z" fill="#2873FB"/>
<path d="M9.8937 0.82037C9.82301 0.749674 9.73919 0.714355 9.64254 0.714355H6.78542C6.68871 0.714355 6.60496 0.749674 6.53432 0.82037C6.46362 0.891027 6.42823 0.97474 6.42823 1.07147C6.42823 1.1682 6.46362 1.25193 6.53432 1.32263L7.51642 2.30475L3.87809 5.94316C3.84083 5.98036 3.82227 6.02316 3.82227 6.07144C3.82227 6.1199 3.84089 6.16268 3.87809 6.19988L4.51425 6.83596C4.55145 6.87316 4.59425 6.89171 4.64261 6.89171C4.69097 6.89171 4.73379 6.87318 4.77096 6.83596L8.40932 3.19761L9.3915 4.17973C9.46214 4.25043 9.54587 4.28579 9.6426 4.28579C9.73933 4.28579 9.82306 4.25043 9.89378 4.17973C9.96448 4.10906 9.9998 4.02536 9.9998 3.92863V1.07147C9.99978 0.974682 9.96434 0.891027 9.8937 0.82037Z" fill="#2873FB"/>
</svg>
