<svg width="32" height="32" viewBox="0 0 32 32" fill="none" xmlns="http://www.w3.org/2000/svg">
<path d="M32 16C32 24.8367 24.8367 32.0002 16.0001 32.0002C7.16344 32.0002 0 24.8367 0 16C0 7.16344 7.16344 0 16.0001 0C24.8366 0 32 7.16344 32 16Z" fill="#434343"/>
<path d="M12.291 15.1396L15.6413 11.8402L18.9934 15.1413L20.9429 13.2214L15.6413 8L10.3416 13.2197L12.291 15.1396ZM8.96482 14.5752L10.9143 16.495L8.96482 18.4151L7.01538 16.4951L8.96482 14.5752ZM12.291 17.8511L15.6413 21.1505L18.9933 17.8495L20.9438 19.7683L20.9429 19.7694L15.6413 24.9907L10.3414 19.7711L10.3387 19.7685L12.291 17.8511ZM24.2674 16.4959L22.3181 18.4159L20.3685 16.4961L22.318 14.576L24.2674 16.4959Z" fill="#F4BB2B"/>
<path d="M17.6195 16.4942H17.6186L17.6204 16.4951L17.6195 16.4962L15.6413 18.4444L13.6648 16.498L15.6413 14.5459L17.6195 16.4942Z" fill="#F4BB2B"/>
</svg>
