<svg width="56" height="63" viewBox="0 0 56 63" fill="none" xmlns="http://www.w3.org/2000/svg">
<path d="M55.9332 30.8144C56.1997 48.2953 42.0571 62.6012 24.6366 62.6012H0V62.601C-4.15814e-06 61.6978 0.177892 60.8034 0.523534 59.969C0.869176 59.1345 1.37579 58.3764 2.01446 57.7377C2.65312 57.099 3.41133 56.5924 4.24578 56.2468C5.08024 55.9012 5.9746 55.7233 6.8778 55.7233H24.6366C27.8825 55.7197 31.0952 55.0697 34.0873 53.8114C37.0793 52.5531 39.7909 50.7115 42.0638 48.3943C44.3367 46.077 46.1255 43.3303 47.3257 40.3145C48.526 37.2986 49.1137 34.074 49.0546 30.8286C48.8009 17.4577 37.5999 6.87767 24.2265 6.87767H6.8778C5.9746 6.87769 5.08024 6.69981 4.24578 6.35418C3.41133 6.00855 2.65313 5.50195 2.01447 4.8633C1.3758 4.22464 0.869183 3.46645 0.52354 2.632C0.177898 1.79756 -1.3861e-06 0.903199 0 0H24.1615C41.3381 -4.22159e-06 55.6713 13.6398 55.9332 30.8144ZM44.9121 25.1635C42.2285 16.4206 33.9734 10.1032 24.3665 10.1032H3.43903V10.1033C3.43902 11.0064 3.6169 11.9008 3.96253 12.7352C4.30815 13.5696 4.81475 14.3278 5.45339 14.9665C6.09203 15.6051 6.8502 16.1117 7.68463 16.4574C8.51905 16.803 9.41339 16.9809 10.3166 16.9809H24.3962C27.8997 16.98 31.2877 18.2339 33.9465 20.5154H13.8515V33.9031H30.1716C29.6934 34.9336 28.9373 35.8103 27.9883 36.4347C27.0392 37.0591 25.9349 37.4065 24.7993 37.4377H18.4993C17.889 37.4377 17.2846 37.5579 16.7207 37.7915C16.1568 38.025 15.6444 38.3674 15.2128 38.799C14.7812 39.2306 14.4389 39.7429 14.2053 40.3068C13.9717 40.8707 13.8515 41.4751 13.8515 42.0855H21.2869V42.1237H24.6366C27.0493 42.1223 29.3918 41.3115 31.2892 39.8211C33.1865 38.3307 34.529 36.2469 35.1019 33.9031H35.1021L35.1031 33.8986C35.1534 33.6924 35.2003 33.4856 35.2386 33.275C35.2805 33.0506 35.3151 32.8238 35.3424 32.5946C35.3566 32.4728 35.3666 32.3501 35.3767 32.2271C35.4003 31.9548 35.4158 31.6805 35.4183 31.4028C35.4185 31.3812 35.4216 31.3604 35.4216 31.3387V31.3387C35.4216 31.3335 35.4208 31.3285 35.4208 31.3233C35.4208 31.3156 35.4216 31.3082 35.4216 31.3005C35.4216 30.4232 35.3143 29.5493 35.1021 28.6981H19.0348V25.1635H44.9121ZM3.43903 52.498H24.6366C27.6415 52.5036 30.6131 51.8691 33.3537 50.6367C36.0943 49.4043 38.5409 47.6023 40.5308 45.3506C42.5206 43.0989 44.008 40.4493 44.894 37.5779C45.78 34.7066 46.0442 31.6795 45.669 28.6981H38.713C38.8574 29.4653 38.9379 30.2432 38.9535 31.0237C38.9882 32.9266 38.6436 34.8173 37.9398 36.5855C37.2361 38.3538 36.1873 39.9642 34.8546 41.3229C33.5219 42.6815 31.9321 43.7613 30.1777 44.499C28.4234 45.2368 26.5397 45.6179 24.6366 45.62H10.3166C9.41339 45.62 8.51905 45.7979 7.68463 46.1436C6.8502 46.4892 6.09202 46.9958 5.45338 47.6345C4.81474 48.2731 4.30815 49.0313 3.96252 49.8657C3.6169 50.7002 3.43902 51.5945 3.43903 52.4977V52.498Z" fill="url(#paint0_linear)"/>
<defs>
<linearGradient id="paint0_linear" x1="-6.25516" y1="56.346" x2="43.761" y2="6.32987" gradientUnits="userSpaceOnUse">
<stop offset="0.22487" stop-color="#1A237E"/>
<stop offset="0.64815" stop-color="#673AB7"/>
<stop offset="1" stop-color="#E91E63"/>
</linearGradient>
</defs>
</svg>
