<svg width="44" height="44" viewBox="0 0 44 44" fill="none" xmlns="http://www.w3.org/2000/svg">
<path d="M22.3154 43.3417C34.2838 43.3417 43.9862 33.6393 43.9862 21.6708C43.9862 9.70236 34.2838 0 22.3154 0C10.3469 0 0.644531 9.70236 0.644531 21.6708C0.644531 33.6393 10.3469 43.3417 22.3154 43.3417Z" fill="white"/>
<path d="M27.8774 30.0001C27.8774 30.0001 27.1951 29.1799 26.6287 28.4639C29.1004 27.7609 30.0401 26.1987 30.0401 26.1987C29.2677 26.7064 28.5339 27.0709 27.8774 27.3183C26.9377 27.7218 26.0366 27.9822 25.1483 28.1384C23.3461 28.4769 21.6855 28.3858 20.2695 28.1254C19.201 27.9171 18.2741 27.6177 17.5018 27.3052C17.0641 27.136 16.6006 26.9277 16.1243 26.6543C16.0729 26.6153 16.0085 26.6022 15.957 26.5632C15.9184 26.5502 15.9055 26.5241 15.8798 26.5111C15.5451 26.3158 15.352 26.1856 15.352 26.1856C15.352 26.1856 16.2531 27.7088 18.6475 28.4379C18.081 29.1669 17.3859 30.0131 17.3859 30.0131C13.2279 29.8699 11.6445 27.0969 11.6445 27.0969C11.6445 20.9651 14.3607 15.992 14.3607 15.992C17.0641 13.948 19.6516 14.0001 19.6516 14.0001L19.8446 14.2345C16.4462 15.2239 14.8885 16.721 14.8885 16.721C14.8885 16.721 15.3005 16.4867 15.9956 16.1742C18.0038 15.276 19.6129 15.0286 20.2695 14.9765C20.3853 14.9635 20.4754 14.9375 20.5913 14.9375C21.737 14.7812 23.0372 14.7422 24.3888 14.8984C26.1782 15.1067 28.0963 15.6405 30.053 16.721C30.053 16.721 28.5597 15.289 25.3672 14.2996L25.6246 14.0001C25.6246 14.0001 28.1992 13.948 30.9154 16.005C30.9154 16.005 33.6317 20.9782 33.6317 27.11C33.6445 27.0969 32.0354 29.8699 27.8774 30.0001ZM19.1238 21.1083C18.0553 21.1083 17.2057 22.0587 17.2057 23.2174C17.2057 24.376 18.0682 25.3264 19.1238 25.3264C20.1922 25.3264 21.0418 24.376 21.0418 23.2174C21.0547 22.0587 20.1922 21.1083 19.1238 21.1083ZM25.998 21.1083C24.9295 21.1083 24.0799 22.0587 24.0799 23.2174C24.0799 24.376 24.9424 25.3264 25.998 25.3264C27.0664 25.3264 27.916 24.376 27.916 23.2174C27.916 22.0587 27.0664 21.1083 25.998 21.1083Z" fill="#4AA956"/>
</svg>
