<svg width="44" height="44" viewBox="0 0 44 44" fill="none" xmlns="http://www.w3.org/2000/svg">
<path d="M21.6708 43.3417C33.6393 43.3417 43.3417 33.6393 43.3417 21.6708C43.3417 9.70236 33.6393 0 21.6708 0C9.70236 0 0 9.70236 0 21.6708C0 33.6393 9.70236 43.3417 21.6708 43.3417Z" fill="white"/>
<path d="M33 21.7436C33 20.2051 31.8 19.1795 30.4286 19.1795C29.7429 19.1795 29.0571 19.5214 28.5429 19.8632C26.6571 18.6667 24.2571 17.9829 21.5143 17.812L23.0571 13.1966L27 14.0513C27 15.2479 28.0286 16.2735 29.2286 16.2735C30.4286 16.2735 31.2857 15.4188 31.2857 14.2222C31.2857 13.0256 30.4286 12 29.2286 12C28.3714 12 27.5143 12.5128 27.1714 13.3675L22.8857 12.3419C22.7143 12.3419 22.5429 12.3419 22.3714 12.5128L20.6571 17.641C17.7429 17.641 15.1714 18.4957 13.2857 19.6923C12.9429 19.3504 12.4286 19.1795 11.5714 19.1795C10.2 19.1795 9 20.3761 9 21.7436C9 22.7692 9.51429 23.6239 10.3714 23.9658C10.3714 24.3077 10.3714 24.4786 10.3714 24.8205C10.3714 28.7521 15.1714 31.8291 21.1714 31.8291C27.1714 31.8291 31.9714 28.5812 31.9714 24.8205C31.9714 24.4786 31.9714 24.3077 31.9714 23.9658C32.4857 23.6239 33 22.7692 33 21.7436ZM15.8571 23.6239C15.8571 22.7692 16.5429 22.0855 17.4 22.0855C18.2571 22.0855 18.9429 22.7692 18.9429 23.6239C18.9429 24.4786 18.2571 25.1624 17.4 25.1624C16.5429 25.1624 15.8571 24.4786 15.8571 23.6239ZM24.7714 28.2393C24.0857 29.094 22.7143 29.4359 21 29.4359C19.2857 29.4359 17.9143 29.094 17.2286 28.2393C17.0571 28.0684 17.0571 27.8974 17.2286 27.7265C17.4 27.5556 17.5714 27.5556 17.7429 27.7265C18.4286 28.4103 19.4571 28.7521 21 28.7521C22.5429 28.7521 23.5714 28.4103 24.2571 27.7265C24.4286 27.5556 24.6 27.5556 24.7714 27.7265C24.9429 27.8974 24.9429 28.0684 24.7714 28.2393ZM24.6 25.1624C23.7429 25.1624 23.0571 24.4786 23.0571 23.6239C23.0571 22.7692 23.7429 22.0855 24.6 22.0855C25.4571 22.0855 26.1429 22.7692 26.1429 23.6239C26.1429 24.4786 25.4571 25.1624 24.6 25.1624Z" fill="#4AA956"/>
</svg>
