<svg width="44" height="44" viewBox="0 0 44 44" fill="none" xmlns="http://www.w3.org/2000/svg">
<path d="M21.7099 43.3417C33.6784 43.3417 43.3807 33.6393 43.3807 21.6708C43.3807 9.70236 33.6784 0 21.7099 0C9.74142 0 0.0390625 9.70236 0.0390625 21.6708C0.0390625 33.6393 9.74142 43.3417 21.7099 43.3417Z" fill="white"/>
<path fill-rule="evenodd" clip-rule="evenodd" d="M23.1014 12.9714C23.2847 12.9081 23.4909 12.8747 23.6737 12.8882C24.2195 12.9316 24.7115 13.2935 24.8978 13.8487L25.4899 15.5841L27.1469 15.0324C27.8855 14.7864 28.6767 15.1952 28.9233 15.9332C29.1728 16.6712 28.7833 17.4624 28.0448 17.7084L26.3685 18.2607L27.493 21.588L29.2291 21.0164C29.9676 20.7704 30.7595 21.1558 31.0055 21.8938C31.255 22.6323 30.8661 23.4435 30.1275 23.6924L28.3909 24.2846L28.9432 25.9397C29.1892 26.6748 28.7833 27.4689 28.0448 27.7149C27.3062 27.9609 26.5149 27.5755 26.2683 26.8376L25.7166 25.1619L22.3833 26.2859L22.9585 28.0213C23.2016 28.7592 22.8191 29.5505 22.077 29.7965C21.3384 30.0425 20.5267 29.6565 20.2807 28.9185L19.6885 27.1831L18.0321 27.7319C17.2936 27.9808 16.5017 27.572 16.2522 26.8341C16.0062 26.0961 16.3922 25.3048 17.1302 25.0588L18.807 24.5071L17.6825 21.1792L15.9459 21.7509C15.2079 21.9969 14.416 21.6115 14.17 20.8735C13.9234 20.1355 14.3094 19.3208 15.048 19.0748L16.7875 18.4833L16.2358 16.8276C15.9863 16.0896 16.3951 15.2983 17.1337 15.0523C17.8723 14.8063 18.6641 15.1917 18.9101 15.9303L19.4624 17.6054L22.8121 16.482L22.2199 14.7466C21.9739 14.0086 22.3599 13.2174 23.1014 12.9714ZM24.8181 22.4861L23.6936 19.1582L20.3604 20.2821L21.4849 23.6094L24.8181 22.4861Z" fill="#2873FB"/>
</svg>
